<svg height="476pt" viewBox="0 -38 476.25885 476" width="476pt" xmlns="http://www.w3.org/2000/svg"><path d="m265.992188 357.488281c-15.023438 13.90625-33.195313 23.953125-52.960938 29.28125-7.023438 1.875-14.199219 3.132813-21.441406 3.761719-76.636719 6.398438-150.078125-56.640625-175.039063-149.921875-27.917969-104 14.71875-202.71875 97.121094-224.800781 17.140625-4.570313 35.054687-5.441406 52.558594-2.558594 24.746093 4.15625 48.050781 14.472656 67.761719 30 37.722656 30.144531 64.484374 71.863281 76.160156 118.71875 20.320312 75.761719 2.960937 152.480469-44.160156 195.519531zm0 0" fill="#ffeb99"/><path d="m205.03125 276.289062c-5.476562 4.730469-11.960938 8.152344-18.960938 10-2.457031.683594-4.976562 1.140626-7.519531 1.359376-32 3.199218-65.359375-26.238282-77.039062-69.757813-12.558594-47.042969 4.878906-92.480469 39.039062-101.601563 5.941407-1.59375 12.140625-2 18.242188-1.199218 9.914062 1.316406 19.34375 5.085937 27.4375 10.960937 19.457031 14.410157 33.246093 35.191407 38.960937 58.71875 9.921875 37.199219.960938 73.601563-20.160156 91.519531zm0 0" fill="#aa6100"/><path d="m468.230469 200.128906c0 78.480469-38.558594 148.082032-98.320313 177.441406-19.066406 9.574219-40.105468 14.558594-61.4375 14.558594-7.722656-.003906-15.425781-.644531-23.042968-1.917968-10.359376-1.835938-20.492188-4.757813-30.238282-8.722657l-13.359375-5.519531 11.757813-8.398438c4.300781-3.085937 8.417968-6.425781 12.320312-10 47.203125-43.121093 64.5625-119.839843 44.242188-195.601562-11.65625-46.84375-38.421875-88.539062-76.160156-118.640625l-10.160157-7.757813 10-6.082031c22.34375-13.875 48.097657-21.269531 74.398438-21.359375 18.644531.011719 37.097656 3.792969 54.242187 11.121094 23.800782 10.21875 44.675782 26.222656 60.71875 46.558594 29.949219 38.296875 45.847656 85.710937 45.039063 134.320312zm0 0" fill="#4e901e"/><path d="m434.527344 190.761719c-.597656-4.378907-4.628906-7.445313-9.007813-6.847657-4.378906.597657-7.445312 4.628907-6.847656 9.007813 1.042969 7.691406 1.566406 15.445313 1.558594 23.207031 0 4.417969 3.582031 8 8 8s8-3.582031 8-8c.007812-8.484375-.5625-16.960937-1.703125-25.367187zm0 0"/><path d="m422 168.539062c4.199219-1.382812 6.480469-5.90625 5.09375-10.105468-11.898438-38.910156-38.917969-71.417969-75-90.230469-3.976562-1.933594-8.765625-.277344-10.699219 3.699219-1.933593 3.976562-.277343 8.765625 3.699219 10.699218 32.195312 16.914063 56.257812 46.035157 66.800781 80.839844.664063 2.015625 2.101563 3.6875 3.996094 4.644532 1.894531.960937 4.09375 1.125 6.109375.460937zm0 0"/><path d="m429.414062 60.792969c-16.871093-21.386719-38.839843-38.203125-63.894531-48.902344-18.101562-7.765625-37.59375-11.765625-57.289062-11.761719-30.167969.109375-59.597657 9.324219-84.4375 26.441406-17.160157-10.765624-36.296875-17.984374-56.289063-21.234374-18.632812-3.046876-37.699218-2.09375-55.9375 2.792968-86.664062 23.199219-131.816406 126.257813-102.78125 234.585938 24.796875 92.414062 96 156.246094 172.125 156.246094 3.777344 0 7.5625-.160157 11.359375-.480469 17.300781-1.433594 34.132813-6.363281 49.472657-14.488281 13.339843 6.816406 27.636718 11.570312 42.402343 14.105468 30.464844 5.140625 61.777344.464844 89.414063-13.351562 62.351562-30.695313 102.671875-103.160156 102.671875-184.617188.796875-50.433594-15.726563-99.613281-46.816407-139.335937zm-218.453124 318.242187c-6.574219 1.746094-13.285157 2.921875-20.058594 3.511719-72.445313 6.0625-142.671875-54.464844-166.664063-144-26.703125-99.632813 13.480469-194.082031 91.472657-214.976563 9.824218-2.648437 19.953124-3.992187 30.128906-4 6.429687.003907 12.851562.519532 19.199218 1.542969 23.4375 3.949219 45.5 13.746094 64.144532 28.488281 36.3125 29.058594 62.050781 69.261719 73.246094 114.398438 19.539062 72.882812 3.097656 146.496094-41.886719 187.570312-14.039063 13.0625-31.0625 22.492188-49.582031 27.464844zm155.460937-8.632812c-24.605469 12.34375-52.503906 16.519531-79.644531 11.917968-9.785156-1.6875-19.351563-4.46875-28.515625-8.292968 4.574219-3.285156 8.945312-6.839844 13.089843-10.648438 49.328126-45.035156 67.59375-124.90625 46.527344-203.488281-12.113281-48.546875-39.871094-91.757813-78.984375-122.960937-.289062-.222657-.582031-.417969-.871093-.632813 21.066406-13.128906 45.382812-20.113281 70.207031-20.167969 17.570312.003906 34.957031 3.578125 51.105469 10.503906 22.621093 9.695313 42.457031 24.898438 57.695312 44.226563 28.757812 36.882813 44.003906 82.507813 43.199219 129.269531 0 75.410156-36.800781 142.234375-93.808594 170.273438zm0 0"/><path d="m190.824219 119.464844c-9.175781-6.613282-19.839844-10.851563-31.046875-12.34375-7.125-.894532-14.355469-.402344-21.289063 1.457031-38.34375 10.269531-58.402343 60.222656-44.703125 111.359375 11.894532 44.382812 45.597656 76 80.039063 76 1.839843 0 3.679687-.097656 5.527343-.273438 2.96875-.300781 5.914063-.835937 8.800782-1.597656 8.109375-2.175781 15.625-6.15625 21.976562-11.648437 24.109375-20.402344 33.246094-60.464844 22.726563-99.710938-6.207031-25.339843-21.074219-47.707031-42.03125-63.242187zm8.960937 150.730468c-6.171875 5.40625-13.890625 8.734376-22.058594 9.511719-28.328124 2.796875-57.96875-24.632812-68.488281-63.914062-11.414062-42.609375 3.5625-83.777344 33.394531-91.765625 3.316407-.890625 6.734376-1.34375 10.167969-1.347656 1.683594.003906 3.367188.113281 5.039063.320312 8.621094 1.1875 16.816406 4.484375 23.855468 9.601562 17.859376 13.355469 30.496094 32.523438 35.726563 54.199219 8.945313 33.394531 1.875 66.878907-17.636719 83.394531zm0 0"/><path d="m154.496094 137.410156c-25.5625 6.855469-38.929688 40.160156-29.800782 74.238282.933594 3.496093 4.09375 5.929687 7.710938 5.9375.703125 0 1.402344-.09375 2.082031-.28125 4.261719-1.144532 6.792969-5.527344 5.65625-9.792969-6.609375-24.695313 2.03125-50.230469 18.496094-54.644531 4.265625-1.144532 6.800781-5.535157 5.65625-9.800782-1.144531-4.269531-5.535156-6.800781-9.800781-5.65625zm0 0"/></svg>